# xmcd
#
# Track frame offsets: 
#        150
#        15980
#        29712
#        44455
#        66115
#        83535
#        103310
#        122102
#        135665
#        156312
#        175137
#        189652
#        206635
#        218897
#
# Disc length: 3152 seconds
#
# Revision: 5
# Processed by: cddbd v1.5.2PL0 Copyright (c) Steve Scherf et al.
# Submitted via: ExactAudioCopyFreeDBPlugin 1.0
#
DISCID=c80c4e0e
DTITLE=Joe Cocker - Organic
DYEAR=1996
DGENRE=Blues
TTITLE0=Into the Mystic
TTITLE1=Anybody Seen My Girl
TTITLE2=Delta Lady
TTITLE3=Heart Full of Rain
TTITLE4=Don't Let Me Be Misunderstood
TTITLE5=Many Rivers to Cross
TTITLE6=High Lonesome Blue
TTITLE7=Sail Away
TTITLE8=You and I
TTITLE9=Darling Be Home Soon
TTITLE10=Dignity
TTITLE11=You Can Leave Your Hat On
TTITLE12=You Are So Beautiful
TTITLE13=Can't Find My Way Home
EXTD=YEAR: 1996 ID3G:   0
EXTT0=
EXTT1=\n
EXTT2=
EXTT3=
EXTT4=
EXTT5=
EXTT6=
EXTT7=
EXTT8=
EXTT9=
EXTT10=
EXTT11=
EXTT12=
EXTT13=
PLAYORDER=
